# xmcd
#
# Track frame offsets:
#	150
#	51874
#	81484
#	96332
#	239153
#	274879
#	319430
#
# Disc length: 4661 seconds
#
# Revision: 0
# Processed by: cddbd v1.5.2PL0 Copyright (c) Steve Scherf et al.
# Submitted via: audiograbber 1.83.01
#
DISCID=6c123307
DTITLE=Grateful Dead - 73-06-22 PNE Coliseum, Vancouver Canada
DYEAR=1900
DGENRE=
TTITLE0=He's Gone
TTITLE1=Truckin
TTITLE2=Jam
TTITLE3=The Other One
TTITLE4=Wharf Rat
TTITLE5=Sugar Magnolia
TTITLE6=Casey Jones
EXTD=
EXTT0=
EXTT1=
EXTT2=
EXTT3=
EXTT4=
EXTT5=
EXTT6=
PLAYORDER=
